<svg width="220" height="40" viewBox="0 0 220 40" fill="none" xmlns="http://www.w3.org/2000/svg">
<g clip-path="url(#clip0_374_244)">
<path d="M12.8911 2.60825C12.0595 4.05412 11.0892 5.78349 10.7288 6.43555L10.0635 7.62627L10.7011 8.95874C11.2555 10.0928 11.3941 10.2345 11.6991 9.89431C11.8931 9.66749 13.2515 7.37111 14.7207 4.73452L17.3821 0H15.8851H14.3881L12.8911 2.60825Z" fill="white"/>
<path d="M15.6356 5.84019L12.309 11.7087L12.9743 12.9278C13.3069 13.6082 13.6951 14.1752 13.8059 14.1752C13.9723 14.1752 21.4848 1.07732 21.7898 0.255153C21.8453 0.113402 21.2353 0 20.4038 0H18.9345L15.6356 5.84019Z" fill="white"/>
<path d="M22.4543 1.89949C19.4048 7.28606 15.2466 14.6855 14.9417 15.2525C14.6367 15.8195 14.6922 16.0747 15.3575 17.2087C15.9119 18.1726 16.1614 18.3995 16.3277 18.1159C16.4386 17.8892 18.3515 14.5154 20.5415 10.6314L24.5612 3.54381L26.5293 3.45876L28.4976 3.3737L27.6105 1.70102L26.6957 0H25.1156H23.5355L22.4543 1.89949Z" fill="white"/>
<path d="M5.7107 5.89548L4.98993 7.22796L9.42542 15.1094L13.8609 22.9624H15.3579C16.8548 22.9624 16.8548 22.9624 16.55 22.3103C16.3559 21.9702 14.4708 18.6248 12.3362 14.8826L8.48287 8.07848L9.34224 6.49085C9.81352 5.61199 10.2016 4.81818 10.2016 4.70478C10.2016 4.61971 9.36997 4.53467 8.34425 4.53467H6.45918L5.7107 5.89548Z" fill="white"/>
<path d="M25.504 4.87523C25.199 5.30049 24.3396 7.00152 24.3396 7.22832C24.3396 7.31337 26.89 7.37008 30.0227 7.37008C33.1552 7.37008 35.7057 7.28503 35.7057 7.17163C35.7057 7.08657 35.4007 6.43451 35.0125 5.75409L34.2918 4.53503H30.0504C26.9732 4.53503 25.7258 4.62008 25.504 4.87523Z" fill="white"/>
<path d="M3.88044 9.12829C3.74184 9.32675 3.40918 9.9221 3.15968 10.4041L2.71613 11.3396L5.95958 17.1515L9.23074 22.9349L10.7 22.9632C11.4762 22.9632 12.1415 22.9066 12.1415 22.7932C12.1415 22.6231 4.35171 8.78809 4.24084 8.78809C4.21311 8.78809 4.04678 8.95819 3.88044 9.12829Z" fill="white"/>
<path d="M22.5932 9.97881L21.9002 11.1979L29.8009 11.2829C34.1809 11.3113 37.7848 11.2829 37.8402 11.2262C37.9234 11.1695 37.7016 10.6025 37.3689 9.95045L36.8145 8.78809H30.0504H23.2864L22.5932 9.97881Z" fill="white"/>
<path d="M1.21954 13.8633C0.83144 14.487 0.498779 15.1391 0.498779 15.2808C0.498779 15.4226 1.44132 17.2369 2.60563 19.2499L4.71249 22.9637H6.20946H7.73415L7.04112 21.7448C6.68074 21.0927 5.3778 18.7962 4.15806 16.6132L1.94031 12.7009L1.21954 13.8633Z" fill="white"/>
<path d="M20.3752 13.9478C19.987 14.6282 19.7376 15.2519 19.8208 15.3653C19.8761 15.5071 23.7018 15.5921 28.3036 15.5921H36.7033L37.5072 17.1515C37.9785 18.0019 38.4497 18.6823 38.5606 18.6256C38.6992 18.5973 39.1706 17.8601 39.6418 16.9814L40.5012 15.3937L39.725 14.0896L38.9765 12.7571H30.0223H21.0682L20.3752 13.9478Z" fill="white"/>
<path d="M24.0629 17.1806C24.0629 17.2939 25.8094 20.4691 27.9716 24.2681C30.134 28.0954 31.9359 31.4408 32.0191 31.7526C32.1023 32.0645 31.7973 32.9717 31.2982 33.879L30.439 35.4382H32.3794H34.3199L35.0131 34.2758C35.4288 33.6521 35.7061 32.9434 35.6505 32.7449C35.5952 32.5181 33.6269 28.8892 31.2706 24.6934L26.9736 17.0388L25.5321 17.0105C24.7282 17.0105 24.0629 17.0955 24.0629 17.1806Z" fill="white"/>
<path d="M29.3858 18.6517C34.4311 27.7239 36.4271 31.1543 36.6488 31.0977C36.7597 31.0409 37.1756 30.5023 37.5359 29.9069L38.1736 28.7729L36.1499 25.2291C35.0411 23.2728 33.544 20.6363 32.8233 19.3322L31.4927 17.0074H29.9679H28.471L29.3858 18.6517Z" fill="white"/>
<path d="M33.2104 17.1492C33.2104 17.3761 38.7824 27.2137 38.921 27.2137C38.9765 27.2137 39.3369 26.6467 39.7249 25.9663L40.4458 24.7189L38.2834 20.8632L36.1211 17.0359L34.6796 17.0074C33.8757 17.0074 33.2104 17.0643 33.2104 17.1492Z" fill="white"/>
<path d="M1.35815 22.7084C0.886884 23.559 0.498779 24.3528 0.498779 24.5229C0.498779 24.6647 0.775998 25.3451 1.10866 25.9971L1.74626 27.2162H10.8113H19.9041L20.4585 26.0821C20.7633 25.4868 21.0129 24.8914 21.0129 24.8063C21.0129 24.7213 17.2704 24.6647 12.6963 24.6647H4.37983L3.60362 23.3604C2.21752 20.9507 2.32841 20.979 1.35815 22.7084Z" fill="white"/>
<path d="M20.3484 29.2001L16.2455 36.5713H14.3327C13.2793 36.5713 12.4199 36.6562 12.4199 36.7414C12.4199 36.8547 12.808 37.6202 13.2793 38.4423L14.1109 39.9733H15.7465H17.3544L21.7899 32.0919L26.2253 24.2388L25.5878 23.1048C25.2551 22.5094 24.8393 21.9708 24.7284 21.9141C24.5898 21.8856 22.6215 25.1743 20.3484 29.2001Z" fill="white"/>
<path d="M22.9807 32.7133C20.8185 36.5123 19.072 39.7159 19.072 39.801C19.072 39.8861 19.7373 39.9711 20.5412 39.9711C21.9274 39.9711 22.0104 39.9144 22.5648 38.8937C22.8698 38.3268 24.339 35.7185 25.8084 33.082L28.4974 28.3474L27.943 27.2417C27.638 26.618 27.2776 26.0511 27.1389 25.966C27.0003 25.881 25.1431 28.9145 22.9807 32.7133Z" fill="white"/>
<path d="M2.71613 28.7466C2.71613 29.03 3.96362 31.0429 4.24084 31.2414C4.37944 31.3548 7.40112 31.4683 10.9495 31.4683H17.3809L18.1016 30.2491C18.4898 29.5688 18.7948 28.9167 18.7948 28.8316C18.7948 28.7181 15.1909 28.6332 10.7554 28.6332C6.34768 28.6332 2.71613 28.6898 2.71613 28.7466Z" fill="white"/>
<path d="M26.8062 34.0748C25.5588 36.3145 24.2835 38.5542 24.0063 39.0644L23.4519 40L25.032 39.9149L26.5844 39.8299L28.6636 36.1444L30.7428 32.4587L30.1884 31.2398C29.8834 30.5877 29.4952 30.049 29.3566 30.049C29.2181 30.049 28.0815 31.8635 26.8062 34.0748Z" fill="white"/>
<path d="M5.21161 32.9124C5.21161 33.0825 5.48883 33.7345 5.82149 34.3297L6.43137 35.4354H10.7837H15.1637L15.8568 34.2448C16.2449 33.5927 16.4944 32.969 16.4112 32.8272C16.1894 32.4587 5.21161 32.5437 5.21161 32.9124Z" fill="white"/>
<path d="M52.487 27.676C51.3576 27.676 50.3603 27.434 49.495 26.95C48.6443 26.466 47.9843 25.784 47.515 24.904C47.0456 24.0093 46.811 22.9827 46.811 21.824V17.776C46.811 16.6173 47.0456 15.598 47.515 14.718C47.999 13.8233 48.6736 13.134 49.539 12.65C50.419 12.166 51.431 11.924 52.575 11.924H54.907C56.007 11.924 56.975 12.1587 57.811 12.628C58.647 13.0973 59.2923 13.7573 59.747 14.608C60.2163 15.444 60.451 16.4193 60.451 17.534H57.459C57.459 16.654 57.2243 15.95 56.755 15.422C56.2856 14.8793 55.6696 14.608 54.907 14.608H52.575C51.7536 14.608 51.0936 14.916 50.595 15.532C50.0963 16.1333 49.847 16.9253 49.847 17.908V21.692C49.847 22.6747 50.089 23.474 50.573 24.09C51.057 24.6913 51.695 24.992 52.487 24.992H54.863C55.6403 24.992 56.271 24.6913 56.755 24.09C57.2536 23.4887 57.503 22.6967 57.503 21.714H60.495C60.495 22.902 60.2603 23.9507 59.791 24.86C59.3216 25.7547 58.6616 26.4513 57.811 26.95C56.9603 27.434 55.9776 27.676 54.863 27.676H52.487ZM62.3094 16.522H65.0814V17.93C65.3601 17.5047 65.7561 17.16 66.2694 16.896C66.7974 16.6173 67.3474 16.478 67.9194 16.478H69.4154V19.074H67.9194C67.1421 19.074 66.5114 19.3087 66.0274 19.778C65.5434 20.2473 65.3014 20.8487 65.3014 21.582V27.5H62.3094V16.522ZM74.6556 27.676C73.7316 27.676 72.9102 27.5073 72.1916 27.17C71.4876 26.818 70.9376 26.334 70.5416 25.718C70.1456 25.0873 69.9476 24.3687 69.9476 23.562V20.724C69.9476 19.8587 70.1456 19.096 70.5416 18.436C70.9376 17.776 71.4876 17.2627 72.1916 16.896C72.9102 16.5293 73.7316 16.346 74.6556 16.346H76.4156C77.8236 16.346 78.9529 16.742 79.8036 17.534C80.6542 18.326 81.0796 19.382 81.0796 20.702V23.034H72.9396V23.562C72.9396 24.046 73.0936 24.4347 73.4016 24.728C73.7096 25.0213 74.1276 25.168 74.6556 25.168H76.3716C76.8849 25.168 77.2956 25.058 77.6036 24.838C77.9262 24.6033 78.0876 24.3027 78.0876 23.936H81.0356C81.0356 24.6693 80.8376 25.322 80.4416 25.894C80.0456 26.466 79.4882 26.906 78.7696 27.214C78.0656 27.522 77.2516 27.676 76.3276 27.676H74.6556ZM78.1316 20.878V20.702C78.1316 20.13 77.9776 19.6753 77.6696 19.338C77.3616 18.986 76.9509 18.81 76.4376 18.81H74.6556C74.1276 18.81 73.7022 18.9933 73.3796 19.36C73.0569 19.7267 72.8956 20.2107 72.8956 20.812V20.878H78.1316ZM86.5823 27.676C85.4383 27.676 84.5143 27.39 83.8103 26.818C83.1063 26.246 82.7543 25.4907 82.7543 24.552V23.738C82.7543 22.814 83.121 22.0733 83.8543 21.516C84.5877 20.944 85.5557 20.658 86.7583 20.658H88.1003C88.4817 20.658 88.8923 20.7093 89.3323 20.812C89.7723 20.9147 90.1757 21.054 90.5423 21.23V20.086C90.5423 19.7193 90.4177 19.426 90.1683 19.206C89.9337 18.9713 89.6183 18.854 89.2223 18.854H87.3303C86.9197 18.854 86.5897 18.9493 86.3403 19.14C86.091 19.3307 85.9663 19.5873 85.9663 19.91H83.0623C83.0623 18.8393 83.451 17.9813 84.2283 17.336C85.0203 16.676 86.0543 16.346 87.3303 16.346H89.2223C90.513 16.346 91.5543 16.6907 92.3463 17.38C93.1383 18.0547 93.5343 18.9567 93.5343 20.086V27.5H90.7623V26.18C90.4103 26.6347 89.9777 27.0013 89.4643 27.28C88.951 27.544 88.445 27.676 87.9463 27.676H86.5823ZM88.1663 25.388C88.709 25.388 89.193 25.2487 89.6183 24.97C90.0437 24.6913 90.3517 24.3173 90.5423 23.848V23.474C90.3077 23.298 89.9777 23.1587 89.5523 23.056C89.1417 22.9533 88.7017 22.902 88.2323 22.902H86.8463C86.4943 22.902 86.2083 22.99 85.9883 23.166C85.7683 23.342 85.6583 23.5767 85.6583 23.87V24.442C85.6583 24.7207 85.7757 24.948 86.0103 25.124C86.2597 25.3 86.5823 25.388 86.9783 25.388H88.1663ZM99.848 27.676C98.5133 27.676 97.4426 27.324 96.636 26.62C95.8293 25.916 95.426 24.992 95.426 23.848H98.374C98.374 24.244 98.506 24.5667 98.77 24.816C99.0486 25.0507 99.408 25.168 99.848 25.168H101.828C102.708 25.168 103.148 24.926 103.148 24.442V24.068C103.148 23.9213 103.075 23.7893 102.928 23.672C102.781 23.54 102.583 23.452 102.334 23.408L98.528 22.748C97.6333 22.6013 96.922 22.286 96.394 21.802C95.8806 21.3033 95.624 20.724 95.624 20.064V19.338C95.624 18.3993 96.0053 17.666 96.768 17.138C97.5453 16.61 98.6233 16.346 100.002 16.346H101.718C102.95 16.346 103.94 16.676 104.688 17.336C105.451 17.9813 105.832 18.8393 105.832 19.91H102.884C102.884 19.5873 102.774 19.3307 102.554 19.14C102.349 18.9493 102.07 18.854 101.718 18.854H100.046C99.0926 18.854 98.616 19.074 98.616 19.514V19.866C98.616 20.0273 98.6746 20.1667 98.792 20.284C98.924 20.3867 99.1073 20.46 99.342 20.504L103.346 21.23C104.182 21.3767 104.857 21.692 105.37 22.176C105.883 22.6453 106.14 23.1807 106.14 23.782V24.574C106.14 25.5273 105.744 26.2827 104.952 26.84C104.175 27.3973 103.133 27.676 101.828 27.676H99.848ZM112.274 27.676C111.35 27.676 110.529 27.5 109.81 27.148C109.106 26.7813 108.556 26.268 108.16 25.608C107.779 24.948 107.588 24.1853 107.588 23.32V20.746C107.588 19.8807 107.786 19.118 108.182 18.458C108.578 17.7833 109.128 17.2627 109.832 16.896C110.551 16.5293 111.372 16.346 112.296 16.346H114.276C115.2 16.346 116.014 16.5293 116.718 16.896C117.437 17.2627 117.994 17.7833 118.39 18.458C118.786 19.118 118.984 19.8807 118.984 20.746V23.32C118.984 24.1853 118.786 24.948 118.39 25.608C117.994 26.268 117.437 26.7813 116.718 27.148C116.014 27.5 115.193 27.676 114.254 27.676H112.274ZM114.21 25.102C114.753 25.102 115.186 24.9187 115.508 24.552C115.831 24.1707 115.992 23.6793 115.992 23.078V20.944C115.992 20.3427 115.831 19.8587 115.508 19.492C115.186 19.1107 114.76 18.92 114.232 18.92H112.34C111.812 18.92 111.387 19.1107 111.064 19.492C110.742 19.8587 110.58 20.3427 110.58 20.944V23.078C110.58 23.6793 110.742 24.1707 111.064 24.552C111.387 24.9187 111.805 25.102 112.318 25.102H114.21ZM121.974 19.074H120.082V16.522H121.974V15.796C121.974 14.608 122.348 13.684 123.096 13.024C123.858 12.3493 124.914 12.012 126.264 12.012H127.848V14.564H126.308C125.838 14.564 125.494 14.6667 125.274 14.872C125.068 15.0773 124.966 15.4 124.966 15.84V16.522H127.606V19.074H124.966V27.5H121.974V19.074ZM134.094 27.5C132.803 27.5 131.857 27.2067 131.256 26.62C130.654 26.0333 130.354 25.124 130.354 23.892V19.074H128.418V16.522H130.442V13.2H133.346V16.522H136.206V19.074H133.346V23.76C133.346 24.1707 133.419 24.4713 133.566 24.662C133.727 24.8527 133.976 24.948 134.314 24.948H136.206V27.5H134.094ZM149.983 27.676C148.854 27.676 147.856 27.434 146.991 26.95C146.14 26.466 145.48 25.784 145.011 24.904C144.542 24.0093 144.307 22.9827 144.307 21.824V17.776C144.307 16.6173 144.542 15.598 145.011 14.718C145.495 13.8233 146.17 13.134 147.035 12.65C147.915 12.166 148.927 11.924 150.071 11.924H152.403C153.503 11.924 154.471 12.1587 155.307 12.628C156.143 13.0973 156.788 13.7573 157.243 14.608C157.712 15.444 157.947 16.4193 157.947 17.534H154.955C154.955 16.654 154.72 15.95 154.251 15.422C153.782 14.8793 153.166 14.608 152.403 14.608H150.071C149.25 14.608 148.59 14.916 148.091 15.532C147.592 16.1333 147.343 16.9253 147.343 17.908V21.692C147.343 22.6747 147.585 23.474 148.069 24.09C148.553 24.6913 149.191 24.992 149.983 24.992H152.359C153.136 24.992 153.767 24.6913 154.251 24.09C154.75 23.4887 154.999 22.6967 154.999 21.714H157.991C157.991 22.902 157.756 23.9507 157.287 24.86C156.818 25.7547 156.158 26.4513 155.307 26.95C154.456 27.434 153.474 27.676 152.359 27.676H149.983ZM163.282 27.676C162.138 27.676 161.214 27.39 160.51 26.818C159.806 26.246 159.454 25.4907 159.454 24.552V23.738C159.454 22.814 159.82 22.0733 160.554 21.516C161.287 20.944 162.255 20.658 163.458 20.658H164.8C165.181 20.658 165.592 20.7093 166.032 20.812C166.472 20.9147 166.875 21.054 167.242 21.23V20.086C167.242 19.7193 167.117 19.426 166.868 19.206C166.633 18.9713 166.318 18.854 165.922 18.854H164.03C163.619 18.854 163.289 18.9493 163.04 19.14C162.79 19.3307 162.666 19.5873 162.666 19.91H159.762C159.762 18.8393 160.15 17.9813 160.928 17.336C161.72 16.676 162.754 16.346 164.03 16.346H165.922C167.212 16.346 168.254 16.6907 169.046 17.38C169.838 18.0547 170.234 18.9567 170.234 20.086V27.5H167.462V26.18C167.11 26.6347 166.677 27.0013 166.164 27.28C165.65 27.544 165.144 27.676 164.646 27.676H163.282ZM164.866 25.388C165.408 25.388 165.892 25.2487 166.318 24.97C166.743 24.6913 167.051 24.3173 167.242 23.848V23.474C167.007 23.298 166.677 23.1587 166.252 23.056C165.841 22.9533 165.401 22.902 164.932 22.902H163.546C163.194 22.902 162.908 22.99 162.688 23.166C162.468 23.342 162.358 23.5767 162.358 23.87V24.442C162.358 24.7207 162.475 24.948 162.71 25.124C162.959 25.3 163.282 25.388 163.678 25.388H164.866ZM172.653 16.522H175.425V17.71C175.733 17.2993 176.122 16.9693 176.591 16.72C177.075 16.4707 177.545 16.346 177.999 16.346H179.385C180.265 16.346 181.043 16.5293 181.717 16.896C182.392 17.248 182.913 17.7467 183.279 18.392C183.646 19.0373 183.829 19.778 183.829 20.614V23.078C183.829 23.9873 183.646 24.794 183.279 25.498C182.913 26.1873 182.399 26.7227 181.739 27.104C181.079 27.4853 180.317 27.676 179.451 27.676H178.021C177.611 27.676 177.185 27.5807 176.745 27.39C176.32 27.1993 175.953 26.9427 175.645 26.62V31.9H172.653V16.522ZM179.055 25.102C179.598 25.102 180.031 24.8967 180.353 24.486C180.676 24.0753 180.837 23.5327 180.837 22.858V20.834C180.837 20.262 180.669 19.8 180.331 19.448C180.009 19.096 179.576 18.92 179.033 18.92H177.691C177.266 18.92 176.863 19.096 176.481 19.448C176.1 19.7853 175.821 20.2253 175.645 20.768V22.946C175.719 23.5913 175.939 24.112 176.305 24.508C176.687 24.904 177.149 25.102 177.691 25.102H179.055ZM187.823 15.488C187.251 15.488 186.789 15.3267 186.437 15.004C186.099 14.6667 185.931 14.2267 185.931 13.684C185.931 13.1413 186.099 12.7087 186.437 12.386C186.789 12.0487 187.251 11.88 187.823 11.88C188.395 11.88 188.849 12.0487 189.187 12.386C189.539 12.7087 189.715 13.1413 189.715 13.684C189.715 14.2267 189.539 14.6667 189.187 15.004C188.849 15.3267 188.395 15.488 187.823 15.488ZM186.327 16.522H189.319V27.5H186.327V16.522ZM197.064 27.5C195.774 27.5 194.828 27.2067 194.226 26.62C193.625 26.0333 193.324 25.124 193.324 23.892V19.074H191.388V16.522H193.412V13.2H196.316V16.522H199.176V19.074H196.316V23.76C196.316 24.1707 196.39 24.4713 196.536 24.662C196.698 24.8527 196.947 24.948 197.284 24.948H199.176V27.5H197.064ZM204.51 27.676C203.366 27.676 202.442 27.39 201.738 26.818C201.034 26.246 200.682 25.4907 200.682 24.552V23.738C200.682 22.814 201.049 22.0733 201.782 21.516C202.515 20.944 203.483 20.658 204.686 20.658H206.028C206.409 20.658 206.82 20.7093 207.26 20.812C207.7 20.9147 208.103 21.054 208.47 21.23V20.086C208.47 19.7193 208.345 19.426 208.096 19.206C207.861 18.9713 207.546 18.854 207.15 18.854H205.258C204.847 18.854 204.517 18.9493 204.268 19.14C204.019 19.3307 203.894 19.5873 203.894 19.91H200.99C200.99 18.8393 201.379 17.9813 202.156 17.336C202.948 16.676 203.982 16.346 205.258 16.346H207.15C208.441 16.346 209.482 16.6907 210.274 17.38C211.066 18.0547 211.462 18.9567 211.462 20.086V27.5H208.69V26.18C208.338 26.6347 207.905 27.0013 207.392 27.28C206.879 27.544 206.373 27.676 205.874 27.676H204.51ZM206.094 25.388C206.637 25.388 207.121 25.2487 207.546 24.97C207.971 24.6913 208.279 24.3173 208.47 23.848V23.474C208.235 23.298 207.905 23.1587 207.48 23.056C207.069 22.9533 206.629 22.902 206.16 22.902H204.774C204.422 22.902 204.136 22.99 203.916 23.166C203.696 23.342 203.586 23.5767 203.586 23.87V24.442C203.586 24.7207 203.703 24.948 203.938 25.124C204.187 25.3 204.51 25.388 204.906 25.388H206.094ZM217.666 27.5C216.36 27.5 215.4 27.2287 214.784 26.686C214.182 26.1287 213.882 25.2707 213.882 24.112V12.1H216.874V23.936C216.874 24.288 216.954 24.5447 217.116 24.706C217.277 24.8673 217.534 24.948 217.886 24.948H219.074V27.5H217.666Z" fill="white"/>
</g>
<defs>
<clipPath id="clip0_374_244">
<rect width="219.002" height="40" fill="white" transform="translate(0.498779)"/>
</clipPath>
</defs>
</svg>
