<svg width="205" height="60" viewBox="0 0 205 60" fill="none" xmlns="http://www.w3.org/2000/svg">
<path d="M197.306 59.5898H8.46331C4.31066 59.5898 0.909607 56.2692 0.909607 52.2148V7.96485C0.909607 3.91044 4.31066 0.589845 8.46331 0.589845H197.306C201.459 0.589845 204.86 3.91044 204.86 7.96485V52.2148C204.86 56.2692 201.459 59.5898 197.306 59.5898Z" fill="black"/>
<path d="M197.306 1.77168C200.803 1.77168 203.649 4.55022 203.649 7.96485V52.2148C203.649 55.6295 200.803 58.408 197.306 58.408H8.46331C4.96595 58.408 2.12009 55.6295 2.12009 52.2148V7.96485C2.12009 4.55022 4.96595 1.77168 8.46331 1.77168H197.306ZM197.306 0.589845H8.46331C4.31066 0.589845 0.909607 3.91044 0.909607 7.96485V52.2148C0.909607 56.2692 4.31066 59.5898 8.46331 59.5898H197.306C201.459 59.5898 204.86 56.2692 204.86 52.2148V7.96485C204.86 3.91044 201.459 0.589845 197.306 0.589845Z" fill="#A6A6A6"/>
<path d="M72.5451 15.6995C72.5451 16.9311 72.1675 17.9175 71.4234 18.6532C70.568 19.5253 69.4538 19.9641 68.0885 19.9641C66.7836 19.9641 65.6694 19.5179 64.7554 18.6384C63.8395 17.746 63.3825 16.6509 63.3825 15.3399C63.3825 14.029 63.8395 12.9339 64.7554 12.0489C65.6694 11.162 66.7836 10.7158 68.0885 10.7158C68.7381 10.7158 69.3575 10.8467 69.9486 11.0901C70.5378 11.3353 71.0174 11.6672 71.3649 12.0765L70.5755 12.8546C69.9693 12.1558 69.1441 11.811 68.0885 11.811C67.1367 11.811 66.3115 12.1355 65.6109 12.79C64.9178 13.4464 64.5703 14.2964 64.5703 15.3399C64.5703 16.3835 64.9178 17.2408 65.6109 17.8972C66.3115 18.5444 67.1367 18.8763 68.0885 18.8763C69.0988 18.8763 69.9486 18.5444 70.619 17.8898C71.0609 17.4566 71.312 16.8592 71.3781 16.0959H68.0885V15.0302H72.4772C72.53 15.2607 72.5451 15.4838 72.5451 15.6995Z" fill="white" stroke="white" stroke-width="0.16" stroke-miterlimit="10"/>
<path d="M79.5078 12.0044H75.3854V14.8069H79.1018V15.8726H75.3854V18.6751H79.5078V19.7611H74.2183V10.9185H79.5078V12.0044Z" fill="white" stroke="white" stroke-width="0.16" stroke-miterlimit="10"/>
<path d="M84.4214 19.7611H83.2544V12.0044H80.7258V10.9185H86.9519V12.0044H84.4214V19.7611Z" fill="white" stroke="white" stroke-width="0.16" stroke-miterlimit="10"/>
<path d="M91.4578 19.7611V10.9185H92.6229V19.7611H91.4578Z" fill="white" stroke="white" stroke-width="0.16" stroke-miterlimit="10"/>
<path d="M97.7877 19.7611H96.6301V12.0044H94.0921V10.9185H100.326V12.0044H97.7877V19.7611Z" fill="white" stroke="white" stroke-width="0.16" stroke-miterlimit="10"/>
<path d="M112.113 18.6237C111.22 19.5179 110.114 19.9641 108.794 19.9641C107.466 19.9641 106.359 19.5179 105.466 18.6237C104.575 17.7313 104.131 16.6361 104.131 15.3399C104.131 14.0438 104.575 12.9486 105.466 12.0562C106.359 11.162 107.466 10.7158 108.794 10.7158C110.106 10.7158 111.213 11.162 112.106 12.0636C113.005 12.9634 113.448 14.0512 113.448 15.3399C113.448 16.6361 113.005 17.7313 112.113 18.6237ZM106.329 17.8825C107.001 18.5444 107.819 18.8763 108.794 18.8763C109.76 18.8763 110.586 18.5444 111.25 17.8825C111.921 17.2206 112.261 16.3706 112.261 15.3399C112.261 14.3093 111.921 13.4593 111.25 12.7974C110.586 12.1355 109.76 11.8036 108.794 11.8036C107.819 11.8036 107.001 12.1355 106.329 12.7974C105.659 13.4593 105.319 14.3093 105.319 15.3399C105.319 16.3706 105.659 17.2206 106.329 17.8825Z" fill="white" stroke="white" stroke-width="0.16" stroke-miterlimit="10"/>
<path d="M115.086 19.7611V10.9185H116.502L120.906 17.7956H120.957L120.906 16.0957V10.9185H122.071V19.7611H120.855L116.243 12.5446H116.192L116.243 14.252V19.7611H115.086Z" fill="white" stroke="white" stroke-width="0.16" stroke-miterlimit="10"/>
<path d="M103.844 32.6746C100.296 32.6746 97.3968 35.3112 97.3968 38.9489C97.3968 42.5571 100.296 45.2213 103.844 45.2213C107.4 45.2213 110.299 42.5571 110.299 38.9489C110.299 35.3112 107.4 32.6746 103.844 32.6746ZM103.844 42.7507C101.897 42.7507 100.222 41.1817 100.222 38.9489C100.222 36.6866 101.897 35.1453 103.844 35.1453C105.791 35.1453 107.473 36.6866 107.473 38.9489C107.473 41.1817 105.791 42.7507 103.844 42.7507ZM89.777 32.6746C86.2211 32.6746 83.3299 35.3112 83.3299 38.9489C83.3299 42.5571 86.2211 45.2213 89.777 45.2213C93.331 45.2213 96.2241 42.5571 96.2241 38.9489C96.2241 35.3112 93.331 32.6746 89.777 32.6746ZM89.777 42.7507C87.8282 42.7507 86.1475 41.1817 86.1475 38.9489C86.1475 36.6866 87.8282 35.1453 89.777 35.1453C91.724 35.1453 93.399 36.6866 93.399 38.9489C93.399 41.1817 91.724 42.7507 89.777 42.7507ZM73.038 34.5977V37.2637H79.5588C79.368 38.7535 78.8582 39.8487 78.0763 40.612C77.1246 41.5339 75.6422 42.5571 73.038 42.5571C69.0251 42.5571 65.8828 39.3951 65.8828 35.4771C65.8828 31.5592 69.0251 28.3971 73.038 28.3971C75.2078 28.3971 76.7866 29.225 77.9517 30.298L79.876 28.4193C78.2463 26.9 76.0784 25.7329 73.038 25.7329C67.5352 25.7329 62.9104 30.1044 62.9104 35.4771C62.9104 40.8498 67.5352 45.2213 73.038 45.2213C76.0123 45.2213 78.2463 44.27 80.0025 42.4852C81.8022 40.7281 82.3631 38.2575 82.3631 36.2626C82.3631 35.6431 82.3102 35.0734 82.2158 34.5977H73.038ZM141.486 36.6645C140.955 35.2614 139.318 32.6746 135.983 32.6746C132.678 32.6746 129.927 35.2172 129.927 38.9489C129.927 42.4631 132.65 45.2213 136.3 45.2213C139.252 45.2213 140.955 43.4643 141.656 42.441L139.465 41.0158C138.734 42.0593 137.739 42.7507 136.3 42.7507C134.871 42.7507 133.845 42.1109 133.188 40.8498L141.782 37.378L141.486 36.6645ZM132.724 38.7535C132.65 36.3345 134.648 35.0955 136.079 35.0955C137.201 35.0955 138.153 35.6431 138.47 36.4267L132.724 38.7535ZM125.738 44.8397H128.563V26.4022H125.738V44.8397ZM121.112 34.0722H121.017C120.383 33.3384 119.172 32.6746 117.639 32.6746C114.421 32.6746 111.479 35.4329 111.479 38.9692C111.479 42.4852 114.421 45.2213 117.639 45.2213C119.172 45.2213 120.383 44.5521 121.017 43.7961H121.112V44.6959C121.112 47.0946 119.799 48.3834 117.682 48.3834C115.956 48.3834 114.886 47.1665 114.444 46.1432L111.987 47.1444C112.695 48.8074 114.57 50.854 117.682 50.854C120.995 50.854 123.789 48.9513 123.789 44.3216V33.0563H121.112V34.0722ZM117.881 42.7507C115.934 42.7507 114.304 41.1596 114.304 38.9692C114.304 36.7585 115.934 35.1453 117.881 35.1453C119.799 35.1453 121.312 36.7585 121.312 38.9692C121.312 41.1596 119.799 42.7507 117.881 42.7507ZM154.712 26.4022H147.956V44.8397H150.773V37.8537H154.712C157.842 37.8537 160.91 35.6431 160.91 32.127C160.91 28.6129 157.834 26.4022 154.712 26.4022ZM154.786 35.2891H150.773V28.9669H154.786C156.89 28.9669 158.091 30.6723 158.091 32.127C158.091 33.5541 156.89 35.2891 154.786 35.2891ZM172.203 32.6396C170.167 32.6396 168.05 33.5172 167.18 35.4624L169.68 36.4857C170.218 35.4624 171.208 35.1305 172.254 35.1305C173.716 35.1305 175.198 35.9879 175.221 37.5016V37.6952C174.711 37.4075 173.619 36.9816 172.277 36.9816C169.584 36.9816 166.84 38.429 166.84 41.1301C166.84 43.6007 169.046 45.1918 171.525 45.1918C173.421 45.1918 174.467 44.3566 175.124 43.385H175.221V44.8102H177.942V37.7376C177.942 34.4686 175.442 32.6396 172.203 32.6396ZM171.863 42.7434C170.942 42.7434 169.657 42.2972 169.657 41.1817C169.657 39.7546 171.259 39.207 172.645 39.207C173.886 39.207 174.467 39.4744 175.221 39.8265C175 41.5338 173.495 42.7434 171.863 42.7434ZM187.856 33.0434L184.618 41.036H184.521L181.173 33.0434H178.135L183.165 44.2128L180.295 50.4281H183.239L190.991 33.0434H187.856ZM162.459 44.8397H165.284V26.4022H162.459V44.8397Z" fill="white"/>
<path d="M16.6742 11.7095C16.2304 12.1631 15.9736 12.8692 15.9736 13.7837V46.4034C15.9736 47.3179 16.2304 48.024 16.6742 48.4776L16.7837 48.5771L35.5056 30.3056V29.8741L16.7837 11.6026L16.6742 11.7095Z" fill="url(#paint0_linear_117_933)"/>
<path d="M41.7392 36.3989L35.5056 30.3053V29.8739L41.7468 23.7803L41.8865 23.8596L49.2778 27.9656C51.3872 29.1309 51.3872 31.0484 49.2778 32.221L41.8865 36.3196L41.7392 36.3989Z" fill="url(#paint1_linear_117_933)"/>
<path d="M41.8866 36.3197L35.5056 30.0897L16.6742 48.4774C17.3748 49.1965 18.5173 49.2832 19.8165 48.5641L41.8866 36.3197Z" fill="url(#paint2_linear_117_933)"/>
<path d="M41.8866 23.8598L19.8165 11.6155C18.5173 10.9038 17.3748 10.9904 16.6742 11.7095L35.5056 30.0898L41.8866 23.8598Z" fill="url(#paint3_linear_117_933)"/>
<defs>
<linearGradient id="paint0_linear_117_933" x1="33.8433" y1="46.7431" x2="9.09634" y2="21.3965" gradientUnits="userSpaceOnUse">
<stop stop-color="#00A0FF"/>
<stop offset="0.0066" stop-color="#00A1FF"/>
<stop offset="0.2601" stop-color="#00BEFF"/>
<stop offset="0.5122" stop-color="#00D2FF"/>
<stop offset="0.7604" stop-color="#00DFFF"/>
<stop offset="1" stop-color="#00E3FF"/>
</linearGradient>
<linearGradient id="paint1_linear_117_933" x1="52.0246" y1="30.0875" x2="15.4694" y2="30.0875" gradientUnits="userSpaceOnUse">
<stop stop-color="#FFE000"/>
<stop offset="0.4087" stop-color="#FFBD00"/>
<stop offset="0.7754" stop-color="#FFA500"/>
<stop offset="1" stop-color="#FF9C00"/>
</linearGradient>
<linearGradient id="paint2_linear_117_933" x1="38.4168" y1="26.703" x2="4.85791" y2="-7.66907" gradientUnits="userSpaceOnUse">
<stop stop-color="#FF3A44"/>
<stop offset="1" stop-color="#C31162"/>
</linearGradient>
<linearGradient id="paint3_linear_117_933" x1="11.9339" y1="59.33" x2="26.9195" y2="43.9814" gradientUnits="userSpaceOnUse">
<stop stop-color="#32A071"/>
<stop offset="0.0685" stop-color="#2DA771"/>
<stop offset="0.4762" stop-color="#15CF74"/>
<stop offset="0.8009" stop-color="#06E775"/>
<stop offset="1" stop-color="#00F076"/>
</linearGradient>
</defs>
</svg>
